# xmcd CD database file
#
# Track frame offsets:
#	150
#	20020
#	34512
#
# Disc length: 694 seconds
#
# Revision: 0
# Processed by: cddbd v1.5.1PL0 Copyright (c) Steve Scherf et al.
# Submitted via: CDex 1.51
#
DISCID=1a02b403
DTITLE=doa - 火ノ鳥のように
DYEAR=2004
DGENRE=JPop
TTITLE0=火ノ鳥のように
TTITLE1=手遅れになるぞ気をつけろ
TTITLE2=Rock'N Roll Star
EXTD=YEAR: 2004
EXTT0=
EXTT1=
EXTT2=
PLAYORDER=
